# xmcd
#
# Track frame offsets:
#	150
#	14400
#	32700
#	48788
#	65578
#	76453
#	94191
#	107338
#	119563
#	131938
#	153538
#	177720
#	190322
#	204907
#	224335
#	240952
#	257100
#	272750
#	288040
#	301353
#	324600
#
# Disc length: 4607 seconds
#
# Revision: 0
# Processed by: cddbd v1.5.2PL0 Copyright (c) Steve Scherf et al.
# Submitted via: EasyCDDAExtractor 12.0.7.1
#
DISCID=3111fd15
DTITLE=David Bowie - Conversation Piece (Disc01)
DYEAR=2010
DGENRE=Pop
TTITLE0=Conversation Piece
TTITLE1=Memory Of A Free Festival, Pt. 1
TTITLE2=Memory Of A Free Festival, Pt. 2
TTITLE3=Lightning Frightening
TTITLE4=Holy Holy
TTITLE5=Moonage Daydream
TTITLE6=Hang Onto Yourself
TTITLE7=Bombers
TTITLE8=The Supermen
TTITLE9=Quicksand
TTITLE10=The Bewlay Brothers
TTITLE11=John, I'm Only Dancing
TTITLE12=Velvet Goldmine
TTITLE13=Sweet Head
TTITLE14=Ziggy Stardust
TTITLE15=Lady Stardust
TTITLE16=Growin' Up
TTITLE17=Port Of Amsterdam
TTITLE18=Dodo
TTITLE19=Candidate
TTITLE20=Who Can I Be Now
EXTD=
EXTT0=
EXTT1=
EXTT2=
EXTT3=
EXTT4=
EXTT5=
EXTT6=
EXTT7=
EXTT8=
EXTT9=
EXTT10=
EXTT11=
EXTT12=
EXTT13=
EXTT14=
EXTT15=
EXTT16=
EXTT17=
EXTT18=
EXTT19=
EXTT20=
PLAYORDER=
